HIERARCHY
ROOT Hips
{
    OFFSET 0.000000 0.000000 0.000000
    CHANNELS 6 Xposition Yposition Zposition Zrotation Xrotation Yrotation
    JOINT Spine
    {
        OFFSET -0.000000 6.993131 0.000000
        CHANNELS 3 Zrotation Xrotation Yrotation
        JOINT Spine1
        {
            OFFSET -0.000000 20.649729 0.000000
            CHANNELS 3 Zrotation Xrotation Yrotation
            JOINT Neck
            {
                OFFSET -0.000000 20.564924 1.869539
                CHANNELS 3 Zrotation Xrotation Yrotation
                JOINT Head
                {
                    OFFSET -0.000000 11.939490 -1.705642
                    CHANNELS 3 Zrotation Xrotation Yrotation
                    End Site
                    {
                        OFFSET -0.000000 21.320518 0.000000
                    }
                }
            }
            JOINT LeftShoulder
            {
                OFFSET 3.446977 19.850397 -0.038759
                CHANNELS 3 Zrotation Xrotation Yrotation
                JOINT LeftArm
                {
                    OFFSET 7.083611 0.000000 0.000000
                    CHANNELS 3 Zrotation Xrotation Yrotation
                    JOINT LeftForeArm
                    {
                        OFFSET 32.044487 0.000000 0.000000
                        CHANNELS 3 Zrotation Xrotation Yrotation
                        JOINT LeftHand
                        {
                            OFFSET 22.068741 0.000000 0.000000
                            CHANNELS 3 Zrotation Xrotation Yrotation
                            End Site
                            {
                                OFFSET 12.792312 0.000000 0.000000
                            }
                        }
                    }
                }
            }
            JOINT RightShoulder
            {
                OFFSET -3.365844 19.850397 -0.038759
                CHANNELS 3 Zrotation Xrotation Yrotation
                JOINT RightArm
                {
                    OFFSET -7.083611 0.000000 0.000000
                    CHANNELS 3 Zrotation Xrotation Yrotation
                    JOINT RightForeArm
                    {
                        OFFSET -32.044487 0.000000 0.000000
                        CHANNELS 3 Zrotation Xrotation Yrotation
                        JOINT RightHand
                        {
                            OFFSET -22.068741 0.000000 0.000000
                            CHANNELS 3 Zrotation Xrotation Yrotation
                            End Site
                            {
                                OFFSET -12.792312 0.000000 0.000000
                            }
                        }
                    }
                }
            }
        }
    }
    JOINT LeftUpLeg
    {
        OFFSET 8.528208 0.000000 0.000000
        CHANNELS 3 Zrotation Xrotation Yrotation
        JOINT LeftLeg
        {
            OFFSET -0.000000 -31.874865 0.000000
            CHANNELS 3 Zrotation Xrotation Yrotation
            JOINT LeftFoot
            {
                OFFSET -0.000000 -38.221939 0.000000
                CHANNELS 3 Zrotation Xrotation Yrotation
                JOINT LeftToeBase
                {
                    OFFSET -0.000000 -5.543335 12.792312
                    CHANNELS 3 Zrotation Xrotation Yrotation
                    End Site
                    {
                        OFFSET -0.000000 0.000000 3.411283
                    }
                }
            }
        }
    }
    JOINT RightUpLeg
    {
        OFFSET -8.528208 0.000000 0.000000
        CHANNELS 3 Zrotation Xrotation Yrotation
        JOINT RightLeg
        {
            OFFSET -0.000000 -31.874865 0.000000
            CHANNELS 3 Zrotation Xrotation Yrotation
            JOINT RightFoot
            {
                OFFSET -0.000000 -38.221939 0.000000
                CHANNELS 3 Zrotation Xrotation Yrotation
                JOINT RightToeBase
                {
                    OFFSET -0.000000 -5.543335 12.792312
                    CHANNELS 3 Zrotation Xrotation Yrotation
                    End Site
                    {
                        OFFSET -0.000000 0.000000 3.411283
                    }
                }
            }
        }
    }
}
MOTION
Frames:    5
Frame Time:    0.008333
-89.485207    84.740532    22.054033    -2.736005    4.400438    92.482780    -1.286984    -10.174185    -2.462421    -10.832865    7.255803    -1.658994    6.782358    9.522897    -0.124051    1.146006    -2.756907    -0.364788    6.221858    12.405607    -3.246811    -71.560051    54.393009    -0.245594    -1.646853    -28.135273    -39.375587    -0.116756    -28.653095    -0.040754    15.275587    12.363026    -2.549213    42.960163    55.143341    13.258123    -9.135668    -10.551968    33.951313    18.960783    -8.352621    -3.379727    -5.133684    -12.061054    2.310111    5.689195    38.923653    10.277260    0.271240    44.525070    -13.556146    0.000000    0.000000    0.000000    -10.448788    -4.745401    -7.236775    7.143150    33.542774    -8.811803    3.196510    32.759048    4.545870    0.000000    0.000000    0.000000    
-88.778397    85.731949    22.142824    -3.174602    4.073126    92.658875    -1.964427    -10.743430    -2.193746    -9.361989    7.244772    -1.415075    6.907916    9.882025    -0.585078    0.946383    -2.507151    -0.864842    6.351748    12.285203    -4.176147    -71.878349    54.460033    -0.449024    -1.274171    -27.897247    -39.121758    0.024890    -28.296001    0.529734    15.204084    11.943934    -3.335103    43.153301    55.391891    12.529217    -9.444794    -10.758803    34.100338    18.542067    -8.449347    -3.431798    -4.897011    -13.031179    1.568993    5.623649    38.792030    9.203312    -1.777323    44.661598    -12.210627    0.000000    0.000000    0.000000    -10.121181    -5.451318    -7.239267    7.066485    33.476063    -9.175426    0.928208    34.298904    4.821112    0.000000    0.000000    0.000000    
-87.994286    86.702171    22.121065    -3.203046    4.371225    92.642632    -2.735132    -10.680625    -1.961275    -8.651192    6.698877    -1.198312    7.593567    11.133041    -0.866491    0.069496    -3.296267    -1.254473    6.102912    12.977065    -4.728014    -70.640846    53.999680    -1.557835    -1.406054    -27.181511    -39.011906    -0.657764    -27.625471    0.452967    15.569666    12.004453    -3.919842    42.825027    55.359394    12.021717    -9.205448    -10.675602    34.540607    17.958748    -8.399981    -3.543113    -5.424125    -13.230699    0.912672    5.594242    38.221981    8.603897    -4.424615    44.380676    -9.222322    0.000000    0.000000    0.000000    -10.592570    -5.802433    -6.977264    7.361576    33.753662    -9.259329    1.937071    34.679478    2.353722    0.000000    0.000000    0.000000    
-87.535675    87.441307    22.369856    -4.170873    3.586524    93.167976    -3.328564    -10.766488    -1.797812    -6.979121    5.440290    -1.152177    9.472204    12.706767    -1.240053    -2.405785    -4.649358    -2.045914    5.423968    12.850601    -5.858769    -70.799080    54.938702    -0.938066    -0.626955    -27.748064    -38.722950    -0.771715    -27.943447    0.191055    15.958469    11.671847    -4.556359    43.511898    55.205364    10.309098    -9.207780    -10.692540    34.652859    17.900557    -8.314007    -2.961759    -4.530787    -15.415656    0.555705    5.763087    38.867664    7.038082    -6.477281    43.253704    -7.002843    0.000000    0.000000    0.000000    -9.575979    -7.441202    -6.921667    7.355615    34.226933    -10.186122    2.615710    34.401005    1.188051    0.000000    0.000000    0.000000    
-86.808304    88.190994    22.380911    -4.145656    3.692180    93.004761    -3.976071    -10.534896    -1.305756    -6.277411    5.101533    -0.659268    9.664827    13.235759    -2.066916    -1.905915    -5.101547    -2.781023    5.480143    12.695170    -6.597729    -70.762192    56.015198    -0.966763    -0.305698    -28.016602    -38.700588    -0.443480    -28.109972    -0.243262    16.466099    11.220663    -5.380819    43.312069    55.814724    9.497383    -8.934014    -11.261369    34.974209    17.406799    -8.923594    -2.908028    -4.698931    -15.517702    0.094653    5.446865    38.024189    7.113639    -7.404993    42.590801    -5.831795    0.000000    0.000000    0.000000    -9.820493    -7.887895    -6.540821    7.771548    34.567211    -10.080315    3.083236    33.155827    -0.403293    0.000000    0.000000    0.000000    
